#!OML:ASF E:\Style4\Style4.ASF
:FULLY-SPECIFIED
:DEGREES
2070
root -0.0605917 18.1703 -0.185482 3.79603 -8.0877 2.38163
lowerback 1.44839 2.74974 -2.81408
upperback -2.26605 3.52871 -1.99407
thorax -3.18688 1.79994 -0.627502
lowerneck 4.14214 -2.02905 -5.94144
upperneck 5.36451 -3.01682 3.55625
head 1.13322 -1.58979 2.14845
rclavicle 7.43579e-015 -1.47101e-014
rhumerus -86.8352 51.2044 -122.497
rradius 83.6247
rwrist -4.77002
rhand -6.25103 31.5858
rfingers 7.12502
rthumb 19.591 2.55291
lclavicle 7.43579e-015 -1.47101e-014
lhumerus -93.2247 -59.1068 117.174
lradius 94.4231
lwrist -10.2554
lhand -8.58766 2.88041
lfingers 7.12502
lthumb 17.3433 32.1266
rfemur -5.99408 9.88735 15.8634
rtibia 16.9817
rfoot -13.9761 -12.9737
rtoes -13.1817
lfemur 3.85623 0.27886 -22.0542
ltibia 3.99
lfoot -12.72 14.4109
ltoes -13.6957
2071
root -0.0580523 18.1681 -0.178362 3.73218 -8.08029 2.29604
lowerback 1.3762 2.75971 -2.72377
upperback -2.21982 3.55102 -1.93021
thorax -3.09691 1.80908 -0.607323
lowerneck 4.25004 -1.96003 -5.99643
upperneck 5.36863 -2.9283 3.43659
head 1.1102 -1.54833 2.12002
rclavicle -4.60901e-014 2.38542e-015
rhumerus -86.7245 51.2424 -122.288
rradius 83.7543
rwrist -4.78145
rhand -6.27915 31.3928
rfingers 7.12502
rthumb 19.564 2.35717
lclavicle -4.60901e-014 2.38542e-015
lhumerus -92.5239 -58.4976 117.35
lradius 94.1218
lwrist -10.5251
lhand -8.85597 2.61133
lfingers 7.12502
lthumb 17.0851 31.8801
rfemur -5.84847 9.95073 15.9563
rtibia 16.9051
rfoot -14.0212 -12.9997
rtoes -12.9309
lfemur 3.79482 0.282465 -21.9975
ltibia 4.30013
lfoot -12.9219 14.3629
ltoes -13.5193
2072
root -0.0520967 18.1637 -0.157669 3.56138 -8.18869 2.14567
lowerback 1.25393 2.81104 -2.49679
upperback -2.11727 3.63545 -1.87389
thorax -2.91201 1.84546 -0.668174
lowerneck 4.37872 -1.9089 -5.99147
upperneck 5.37608 -2.86265 3.30302
head 1.08453 -1.51741 2.07627
rclavicle -1.69588e-014 1.98785e-014
rhumerus -86.6202 51.2679 -122.154
rradius 83.8117
rwrist -4.79592
rhand -6.33456 31.3619
rfingers 7.12502
rthumb 19.5107 2.32085
lclavicle -1.69588e-014 1.98785e-014
lhumerus -91.6827 -57.9386 117.384
lradius 93.7431
lwrist -11.0044
lhand -9.24686 2.22843
lfingers 7.12502
lthumb 16.7088 31.5293
rfemur -5.57717 10.0137 16.1127
rtibia 16.8589
rfoot -14.0482 -12.9288
rtoes -13.0327
lfemur 3.95898 0.407685 -21.9078
ltibia 4.53805
lfoot -13.1824 14.3142
ltoes -13.5996
2073
root -0.0615152 18.1624 -0.176695 3.37841 -7.52926 2.15792
lowerback 1.64653 2.63525 -2.58682
upperback -2.09544 3.38484 -1.82047
thorax -3.1171 1.72379 -0.573241
lowerneck 4.46498 -1.87723 -6.01116
upperneck 5.46014 -2.82379 3.21517
head 1.09333 -1.50038 2.0515
rclavicle -6.43565e-015 1.86858e-014
rhumerus -86.3454 51.286 -121.9
rradius 83.8483
rwrist -4.84082
rhand -6.04255 31.48
rfingers 7.12502
rthumb 19.7915 2.46765
lclavicle -6.43565e-015 1.86858e-014
lhumerus -90.6429 -57.479 117.224
lradius 93.3378
lwrist -11.6503
lhand -9.83988 1.6854
lfingers 7.12502
lthumb 16.1378 31.0335
rfemur -5.2709 9.83611 16.2528
rtibia 16.8719
rfoot -14.1001 -13.3802
rtoes -12.8342
lfemur 3.95026 -0.242079 -21.8323
ltibia 4.6753
lfoot -12.9921 14.4125
ltoes -14.4803
2074
root -0.067619 18.1602 -0.190132 3.20849 -7.10407 2.27415
lowerback 1.94434 2.51711 -2.75608
upperback -2.06041 3.2111 -1.79407
thorax -3.25813 1.64176 -0.457989
lowerneck 4.54831 -1.82645 -6.03966
upperneck 5.48499 -2.75851 3.1147
head 1.08244 -1.4698 2.02422
rclavicle 7.09102e-015 -1.63003e-014
rhumerus -86.0851 51.367 -121.656
rradius 83.9056
rwrist -4.90625
rhand -5.06358 31.6672
rfingers 7.12502
rthumb 20.7323 2.75468
lclavicle 7.09102e-015 -1.63003e-014
lhumerus -89.5923 -56.9814 116.981
lradius 92.9777
lwrist -12.356
lhand -10.9078 1.24068
lfingers 7.12502
lthumb 15.1093 30.6692
rfemur -5.09224 9.67303 16.2128
rtibia 16.9656
rfoot -14.157 -13.6355
rtoes -12.6048
lfemur 4.02797 -0.666585 -21.9079
ltibia 4.67682
lfoot -12.8104 14.4547
ltoes -14.6702
2075
root -0.0698986 18.1586 -0.195927 3.10211 -6.87754 2.4771
lowerback 2.06248 2.45684 -2.99673
upperback -2.0252 3.11772 -1.80096
thorax -3.30012 1.60063 -0.331424
lowerneck 4.51962 -1.80825 -6.02352
upperneck 5.62742 -2.72764 2.96032
head 1.12806 -1.45644 1.96987
rclavicle -4.84538e-015 3.65764e-014
rhumerus -85.8634 51.44 -121.475
rradius 83.9287
rwrist -4.92043
rhand -4.32597 31.7788
rfingers 7.12502
rthumb 21.4409 2.94523
lclavicle -4.84538e-015 3.65764e-014
lhumerus -88.4654 -56.5195 116.656
lradius 92.5761
lwrist -13.1012
lhand -11.7435 1.157
lfingers 7.12502
lthumb 14.3042 30.6443
rfemur -5.09119 9.60266 16.0213
rtibia 17.1695
rfoot -14.3141 -13.7221
rtoes -12.5003
lfemur 4.10573 -0.90042 -22.1088
ltibia 4.59331
lfoot -12.7099 14.4763
ltoes -14.6897
2076
root -0.0698078 18.1576 -0.199846 3.16595 -6.87428 2.61034
lowerback 1.96889 2.48294 -3.12919
upperback -2.02398 3.15147 -1.82074
thorax -3.2531 1.61992 -0.275393
lowerneck 4.34857 -1.85197 -5.99869
upperneck 5.96074 -2.77163 2.80745
head 1.26245 -1.4817 1.91303
rclavicle -2.63669e-014 1.63003e-014
rhumerus -85.559 51.4693 -121.229
rradius 83.9231
rwrist -4.86075
rhand -4.56027 31.8458
rfingers 7.12502
rthumb 21.2159 2.9868
lclavicle -2.63669e-014 1.63003e-014
lhumerus -87.2858 -56.2246 116.287
lradius 92.1115
lwrist -13.876
lhand -12.4056 0.962347
lfingers 7.12502
lthumb 13.6661 30.4937
rfemur -5.34088 9.5209 15.8429
rtibia 17.4078
rfoot -14.409 -13.6511
rtoes -12.8409
lfemur 4.15336 -0.916045 -22.2451
ltibia 4.27531
lfoot -12.5346 14.4823
ltoes -14.5433
2077
root -0.0678473 18.1565 -0.203871 3.29904 -7.17163 2.71598
lowerback 1.80433 2.60939 -3.22249
upperback -2.05191 3.32258 -1.86234
thorax -3.19579 1.7066 -0.267701
lowerneck 4.26222 -1.8714 -6.01589
upperneck 6.18379 -2.79557 2.83351
head 1.35062 -1.4957 1.92364
rclavicle -1.37441e-014 2.22639e-014
rhumerus -85.2143 51.4812 -120.96
rradius 83.9036
rwrist -4.81499
rhand -4.49775 31.8079
rfingers 7.12502
rthumb 21.2759 2.95565
lclavicle -1.37441e-014 2.22639e-014
lhumerus -85.8772 -56.0081 115.622
lradius 91.6074
lwrist -14.406
lhand -12.8527 0.46117
lfingers 7.12502
lthumb 13.2352 30.021
rfemur -5.72309 9.43123 15.6315
rtibia 17.6274
rfoot -14.3748 -13.3421
rtoes -12.9298
lfemur 4.22524 -0.634947 -22.3771
ltibia 3.84539
lfoot -12.3357 14.5133
ltoes -14.4328
2078
root -0.0677402 18.1537 -0.202349 3.296 -7.25379 2.83918
lowerback 1.71762 2.6548 -3.32941
upperback -2.03335 3.38315 -1.90557
thorax -3.13291 1.73799 -0.250628
lowerneck 4.28531 -1.87303 -6.03462
upperneck 6.23627 -2.80414 2.93036
head 1.36617 -1.50016 1.95905
rclavicle 5.61877e-015 1.98785e-015
rhumerus -84.9249 51.4957 -120.771
rradius 83.8666
rwrist -4.8225
rhand -4.18253 31.8071
rfingers 7.12502
rthumb 21.5787 2.98932
lclavicle 5.61877e-015 1.98785e-015
lhumerus -84.4173 -55.7922 114.8
lradius 91.1217
lwrist -14.7457
lhand -13.0307 -0.231519
lfingers 7.12502
lthumb 13.0636 29.3394
rfemur -5.83981 9.38365 15.4707
rtibia 17.7989
rfoot -14.4042 -13.2395
rtoes -12.9774
lfemur 4.42591 -0.564288 -22.5046
ltibia 3.47198
lfoot -12.2121 14.5672
ltoes -14.554
2079
root -0.069514 18.1527 -0.197107 3.27852 -7.09141 2.92563
lowerback 1.61069 2.63015 -3.41047
upperback -1.99084 3.35346 -1.93925
thorax -3.03089 1.72337 -0.231745
lowerneck 4.20997 -1.92706 -5.99862
upperneck 6.38048 -2.87568 3.01626
head 1.42993 -1.53522 1.97994
rclavicle 1.19799e-014 1.07344e-014
rhumerus -84.6186 51.4788 -120.56
rradius 83.8294
rwrist -4.7808
rhand -4.09258 31.7785
rfingers 7.12502
rthumb 21.6651 2.97068
lclavicle 1.19799e-014 1.07344e-014
lhumerus -83.1133 -55.6761 113.919
lradius 90.817
lwrist -15.119
lhand -12.9073 -0.807262
lfingers 7.12502
lthumb 13.1826 28.756
rfemur -5.82645 9.33361 15.409
rtibia 17.9332
rfoot -14.492 -13.3213
rtoes -12.8143
lfemur 4.73092 -0.736453 -22.5585
ltibia 2.92535
lfoot -11.8974 14.6661
ltoes -15.0385
2080
root -0.0688974 18.1529 -0.190367 3.31715 -6.7618 2.96668
lowerback 1.45914 2.55483 -3.402
upperback -1.96301 3.26114 -1.96486
thorax -2.91256 1.6757 -0.249695
lowerneck 4.05902 -2.02102 -5.95203
upperneck 6.59346 -2.99608 3.08246
head 1.53093 -1.59463 1.99149
rclavicle -2.628e-014 4.77083e-015
rhumerus -84.3909 51.4688 -120.385
rradius 83.8046
rwrist -4.72923
rhand -4.30739 31.5867
rfingers 7.12502
rthumb 21.4587 2.7552
lclavicle -2.628e-014 4.77083e-015
lhumerus -82.1074 -55.6013 113.18
lradius 90.6384
lwrist -15.4883
lhand -12.9597 -0.946938
lfingers 7.12502
lthumb 13.132 28.6196
rfemur -5.80435 9.15772 15.4005
rtibia 18.021
rfoot -14.5606 -13.4709
rtoes -12.9303
lfemur 5.04844 -1.07596 -22.5646
ltibia 2.24218
lfoot -11.4652 14.7851
ltoes -15.4121
2081
root -0.0687993 18.1526 -0.181988 3.3092 -6.30404 3.10864
lowerback 1.34679 2.43872 -3.50864
upperback -1.93613 3.10891 -2.00433
thorax -2.82182 1.60055 -0.218011
lowerneck 3.91452 -2.14727 -5.93724
upperneck 6.76884 -3.16173 3.16425
head 1.62242 -1.67664 2.01361
rclavicle -2.14066e-014 1.27222e-014
rhumerus -84.3092 51.4491 -120.326
rradius 83.7856
rwrist -4.6877
rhand -4.7936 31.3073
rfingers 7.12502
rthumb 20.9917 2.4233
lclavicle -2.14066e-014 1.27222e-014
lhumerus -81.4821 -55.5683 112.757
lradius 90.3712
lwrist -15.7856
lhand -13.4545 -1.10088
lfingers 7.12502
lthumb 12.655 28.4957
rfemur -5.70012 8.91651 15.3065
rtibia 18.0876
rfoot -14.6662 -13.6979
rtoes -13.058
lfemur 5.42079 -1.54776 -22.6655
ltibia 1.52452
lfoot -11.1236 14.8383
ltoes -15.2024
2082
root -0.0696119 18.1529 -0.177196 3.35487 -6.12231 3.17467
lowerback 1.1926 2.41493 -3.55378
upperback -1.92956 3.08333 -2.042
thorax -2.72801 1.58738 -0.222913
lowerneck 3.7983 -2.27481 -5.89446
upperneck 6.88894 -3.32968 3.24115
head 1.69083 -1.75866 2.02907
rclavicle 1.21321e-014 -1.23246e-014
rhumerus -84.2232 51.4057 -120.269
rradius 83.7677
rwrist -4.62547
rhand -4.88872 31.279
rfingers 7.12502
rthumb 20.9003 2.38491
lclavicle 1.21321e-014 -1.23246e-014
lhumerus -81.0598 -55.6176 112.441
lradius 90.0612
lwrist -16.0462
lhand -14.0142 -1.29812
lfingers 7.12502
lthumb 12.1154 28.3311
rfemur -5.71981 8.78642 15.2526
rtibia 18.1251
rfoot -14.7539 -13.7413
rtoes -12.7588
lfemur 5.74346 -1.74228 -22.7048
ltibia 0.845127
lfoot -10.8178 14.8774
ltoes -14.7806
